<?xml version="1.0" encoding="utf-8"?>
<!-- Generator: Adobe Illustrator 26.3.1, SVG Export Plug-In . SVG Version: 6.00 Build 0)  -->
<svg version="1.1" id="Layer_1" xmlns="http://www.w3.org/2000/svg" xmlns:xlink="http://www.w3.org/1999/xlink" x="0px" y="0px"
	 viewBox="0 0 2000 2000" style="enable-background:new 0 0 2000 2000;" xml:space="preserve">
<style type="text/css">
	.st0{fill:#003566;}
</style>
<g>
	<path class="st0" d="M1000.07,431.25l478.2,245.86v645.37l-478.2,245.86l-478.2-245.86V677.11L1000.07,431.25 M1000.07,341.3
		l-558.2,286.99v743.02l558.2,286.99l558.2-286.99V628.29L1000.07,341.3L1000.07,341.3z"/>
	<g>
		<g>
			<path class="st0" d="M808.17,993.74c-11.28,27.53-22.56,55.06-33.84,82.59c-22.37-22.5-59.49-66.18-79.92-131.81
				c-11.55-37.11-14.35-70.27-14.34-94.99v-110h80v110C760.07,902.26,776.95,952.38,808.17,993.74z"/>
		</g>
		<g>
			<g>
				<path class="st0" d="M1216.94,1084.82c34.11,78.33,68.21,156.67,102.32,235h-87.7c-26.44-62.91-52.89-125.82-79.33-188.73
					c-25.13,13.56-79.27,38.44-152.16,38.44c-72.59,0-126.55-24.67-151.69-38.18c-26.29,62.82-52.59,125.65-78.88,188.47h-87.64
					c92.83-213.35,185.67-426.69,278.5-640.04c26.47,0.01,52.95,0.01,79.42,0.02c46.24,103.91,92.48,207.81,138.72,311.72
					c-4.97,6.22-10.67,12.7-17.21,19.23c-15.15,15.14-30.47,26.22-43.75,34.29c-39.16-88.63-78.31-177.25-117.47-265.88
					c-40.57,92.45-81.13,184.89-121.7,277.34c18.64,10.92,62.15,33.03,121.7,33.03c21.56,0,70.59-2.89,122.03-33.22
					c15.65-9.23,70.51-43.98,99.85-114.95c15.53-37.57,18.11-71.24,18.12-91.83v-110h80v110c0.01,24.98-2.83,58.08-14.34,94.99
					C1283.45,1016,1241.01,1062.25,1216.94,1084.82z"/>
			</g>
		</g>
	</g>
</g>
</svg>
